<?xml version="1.0" encoding="UTF-8" standalone="no"?><!DOCTYPE svg PUBLIC "-//W3C//DTD SVG 1.1//EN" "http://www.w3.org/Graphics/SVG/1.1/DTD/svg11.dtd"><svg width="100%" height="100%" viewBox="0 0 2960 1623" version="1.1" xmlns="http://www.w3.org/2000/svg" xmlns:xlink="http://www.w3.org/1999/xlink" xml:space="preserve" xmlns:serif="http://www.serif.com/" style="fill-rule:evenodd;clip-rule:evenodd;stroke-linecap:round;stroke-linejoin:round;stroke-miterlimit:1.5;"><rect id="default" x="0" y="0" width="2959.77" height="1622.71" style="fill:none;"/><path d="M2582.22,1112.42c0,-34.329 -27.829,-62.158 -62.158,-62.158c-313.393,-0 -1717.52,-0 -2030.92,-0c-34.328,-0 -62.157,27.829 -62.157,62.158c-0,58.577 -0,145.871 -0,204.448c-0,34.329 27.829,62.158 62.157,62.158c313.394,0 1717.52,0 2030.92,0c34.329,0 62.158,-27.829 62.158,-62.158c0,-58.577 0,-145.871 0,-204.448Zm0,-825.146c0,-11.561 -4.592,-22.648 -12.767,-30.823c-8.175,-8.175 -19.262,-12.767 -30.823,-12.767c-92.291,-0 -306.506,-0 -398.798,-0c-11.56,-0 -22.648,4.592 -30.822,12.767c-8.175,8.175 -12.768,19.262 -12.768,30.823c0,62.948 0,178.636 0,241.584c0,11.561 4.593,22.648 12.768,30.823c8.174,8.174 19.262,12.767 30.822,12.767c18.306,-0 39.552,-0 57.858,-0c24.074,-0 43.59,19.516 43.59,43.59c-0,77.768 -0,239.554 -0,317.322c-0,24.074 19.516,43.59 43.59,43.59c65.432,-0 188.328,-0 253.76,-0c24.074,-0 43.59,-19.516 43.59,-43.59c0,-130.289 0,-515.798 0,-646.086Zm-1667.77,418.978c0,-16.043 -6.373,-31.43 -17.718,-42.774c-11.344,-11.345 -26.73,-17.718 -42.774,-17.718l-219.957,0c-16.043,0 -31.43,6.373 -42.774,17.718c-11.344,11.344 -17.718,26.731 -17.718,42.774l0,207.781c0,16.043 6.374,31.429 17.718,42.774c11.344,11.344 26.731,17.717 42.774,17.717l219.957,0c16.044,0 31.43,-6.373 42.774,-17.717c11.345,-11.345 17.718,-26.731 17.718,-42.774l0,-207.781Zm831.334,0c-0,-16.043 -6.374,-31.43 -17.718,-42.774c-11.344,-11.345 -26.731,-17.718 -42.774,-17.718l-219.957,0c-16.044,0 -31.43,6.373 -42.774,17.718c-11.345,11.344 -17.718,26.731 -17.718,42.774l-0,207.781c-0,16.043 6.373,31.429 17.718,42.774c11.344,11.344 26.73,17.717 42.774,17.717l219.957,0c16.043,0 31.43,-6.373 42.774,-17.717c11.344,-11.345 17.718,-26.731 17.718,-42.774l-0,-207.781Zm-414.263,0c0,-16.043 -6.373,-31.43 -17.717,-42.774c-11.345,-11.345 -26.731,-17.718 -42.775,-17.718l-219.957,0c-16.043,0 -31.429,6.373 -42.774,17.718c-11.344,11.344 -17.717,26.731 -17.717,42.774l-0,207.781c-0,16.043 6.373,31.429 17.717,42.774c11.345,11.344 26.731,17.717 42.774,17.717l219.957,0c16.044,0 31.43,-6.373 42.775,-17.717c11.344,-11.345 17.717,-26.731 17.717,-42.774l0,-207.781Zm831.334,0c-0,-16.043 -6.374,-31.43 -17.718,-42.774c-11.344,-11.345 -26.731,-17.718 -42.774,-17.718l-219.957,0c-16.044,0 -31.43,6.373 -42.774,17.718c-11.345,11.344 -17.718,26.731 -17.718,42.774l0,207.781c0,16.043 6.373,31.429 17.718,42.774c11.344,11.344 26.73,17.717 42.774,17.717l219.957,0c16.043,0 31.43,-6.373 42.774,-17.717c11.344,-11.345 17.718,-26.731 17.718,-42.774l-0,-207.781Zm-1394.93,-402.076c0,-16.044 -6.373,-31.43 -17.717,-42.775c-11.345,-11.344 -26.731,-17.717 -42.775,-17.717l-219.957,-0c-16.043,-0 -31.429,6.373 -42.774,17.717c-11.344,11.345 -17.717,26.731 -17.717,42.775l-0,207.78c-0,16.044 6.373,31.43 17.717,42.774c11.345,11.345 26.731,17.718 42.774,17.718l219.957,-0c16.044,-0 31.43,-6.373 42.775,-17.718c11.344,-11.344 17.717,-26.73 17.717,-42.774l0,-207.78Zm831.334,-0c-0,-16.044 -6.373,-31.43 -17.718,-42.775c-11.344,-11.344 -26.731,-17.717 -42.774,-17.717l-219.957,-0c-16.044,-0 -31.43,6.373 -42.774,17.717c-11.345,11.345 -17.718,26.731 -17.718,42.775l0,207.78c0,16.044 6.373,31.43 17.718,42.774c11.344,11.345 26.73,17.718 42.774,17.718l219.957,-0c16.043,-0 31.43,-6.373 42.774,-17.718c11.344,-11.344 17.718,-26.73 17.718,-42.774l-0,-207.78Zm-414.263,-0c0,-16.044 -6.373,-31.43 -17.717,-42.775c-11.345,-11.344 -26.731,-17.717 -42.774,-17.717l-219.958,-0c-16.043,-0 -31.429,6.373 -42.774,17.717c-11.344,11.345 -17.717,26.731 -17.717,42.775l-0,207.78c-0,16.044 6.373,31.43 17.717,42.774c11.345,11.345 26.731,17.718 42.774,17.718l219.958,-0c16.043,-0 31.429,-6.373 42.774,-17.718c11.344,-11.344 17.717,-26.73 17.717,-42.774l0,-207.78Zm831.334,-0c-0,-16.044 -6.373,-31.43 -17.718,-42.775c-11.344,-11.344 -26.731,-17.717 -42.774,-17.717l-219.957,-0c-16.043,-0 -31.43,6.373 -42.774,17.717c-11.345,11.345 -17.718,26.731 -17.718,42.775l0,207.78c0,16.044 6.373,31.43 17.718,42.774c11.344,11.345 26.731,17.718 42.774,17.718l219.957,-0c16.043,-0 31.43,-6.373 42.774,-17.718c11.345,-11.344 17.718,-26.73 17.718,-42.774l-0,-207.78Z" style="fill:url(#_Linear1);stroke:#000;stroke-width:16.67px;"/><defs><linearGradient id="_Linear1" x1="0" y1="0" x2="1" y2="0" gradientUnits="userSpaceOnUse" gradientTransform="matrix(2252.71,1135.34,-1135.34,2252.71,481.037,243.685)"><stop offset="0" style="stop-color:#96aab7;stop-opacity:0.77"/><stop offset="1" style="stop-color:#2d4957;stop-opacity:0.77"/></linearGradient></defs></svg>