<?xml version="1.0" encoding="UTF-8" standalone="no"?><!DOCTYPE svg PUBLIC "-//W3C//DTD SVG 1.1//EN" "http://www.w3.org/Graphics/SVG/1.1/DTD/svg11.dtd"><svg width="100%" height="100%" viewBox="0 0 136 176" version="1.1" xmlns="http://www.w3.org/2000/svg" xmlns:xlink="http://www.w3.org/1999/xlink" xml:space="preserve" xmlns:serif="http://www.serif.com/" style="fill-rule:evenodd;clip-rule:evenodd;stroke-linejoin:round;stroke-miterlimit:2;"><rect id="Plan-de-travail2" serif:id="Plan de travail2" x="0" y="-0" width="135.61" height="175.467" style="fill:none;"/><path id="codeview-newline" d="M44.885,28.303c-0,0 0.701,0.012 2.004,0.033c20.742,0.336 39.023,13.702 45.634,33.365c6.611,19.663 0.119,41.359 -16.206,54.158c-0,-0 -0,-0 -0,-0c-0,-0 2.052,0.074 4.857,0.176c2.007,0.072 3.723,1.464 4.209,3.411c0.486,1.948 -0.376,3.983 -2.112,4.989c-12.488,7.237 -30.578,17.722 -40.633,23.549c-1.599,0.927 -3.563,0.961 -5.193,0.09c-1.63,-0.87 -2.694,-2.522 -2.813,-4.366c-0.467,-7.238 -1.122,-17.381 -1.523,-23.604c-0.091,-1.412 0.428,-2.796 1.427,-3.799c0.998,-1.003 2.379,-1.529 3.792,-1.445c6.372,0.38 15.927,0.951 15.927,0.951c0,-0 2.914,-1.891 7.771,-5.043c15.635,-10.144 23.436,-28.849 19.643,-47.097c-3.793,-18.248 -18.402,-32.294 -36.784,-35.368c-0,0 -0,0 -0,0Z" style="fill:#fff;fill-opacity:0.5;"/></svg>