<?xml version="1.0" encoding="UTF-8" standalone="no"?><!DOCTYPE svg PUBLIC "-//W3C//DTD SVG 1.1//EN" "http://www.w3.org/Graphics/SVG/1.1/DTD/svg11.dtd"><svg width="100%" height="100%" viewBox="0 0 1182 1182" version="1.1" xmlns="http://www.w3.org/2000/svg" xmlns:xlink="http://www.w3.org/1999/xlink" xml:space="preserve" xmlns:serif="http://www.serif.com/" style="fill-rule:evenodd;clip-rule:evenodd;stroke-linejoin:round;stroke-miterlimit:2;"><rect id="navigation" x="0" y="0" width="1181.1" height="1181.1" style="fill:none;"/><g><path d="M885.827,746.873c-0,-11.511 -9.332,-20.842 -20.842,-20.842c-91.528,-0 -457.34,-0 -548.867,-0c-11.511,-0 -20.842,9.331 -20.842,20.842c-0,0 -0,0.001 -0,0.002c-0,11.51 9.331,20.842 20.842,20.842c91.527,-0 457.339,-0 548.867,-0c11.51,-0 20.842,-9.332 20.842,-20.842c-0,-0.001 -0,-0.002 -0,-0.002Z" style="fill:#fff;"/><path d="M885.827,590.55c-0,-11.511 -9.332,-20.842 -20.842,-20.842c-91.528,0 -457.34,0 -548.867,0c-11.511,0 -20.842,9.331 -20.842,20.842c-0,0.001 -0,0.002 -0,0.002c-0,11.511 9.331,20.842 20.842,20.842c91.527,0 457.339,0 548.867,0c11.51,0 20.842,-9.331 20.842,-20.842c-0,-0 -0,-0.001 -0,-0.002Z" style="fill:#fff;"/><path d="M885.827,434.228c-0,-11.511 -9.332,-20.842 -20.842,-20.842c-91.528,-0 -457.34,-0 -548.867,-0c-11.511,-0 -20.842,9.331 -20.842,20.842c-0,0 -0,0.001 -0,0.002c-0,11.511 9.331,20.842 20.842,20.842c91.527,-0 457.339,-0 548.867,-0c11.51,-0 20.842,-9.331 20.842,-20.842c-0,-0.001 -0,-0.002 -0,-0.002Z" style="fill:#fff;"/></g></svg>