<?xml version="1.0" encoding="UTF-8" standalone="no"?><!DOCTYPE svg PUBLIC "-//W3C//DTD SVG 1.1//EN" "http://www.w3.org/Graphics/SVG/1.1/DTD/svg11.dtd"><svg width="100%" height="100%" viewBox="0 0 341 438" version="1.1" xmlns="http://www.w3.org/2000/svg" xmlns:xlink="http://www.w3.org/1999/xlink" xml:space="preserve" xmlns:serif="http://www.serif.com/" style="fill-rule:evenodd;clip-rule:evenodd;stroke-linecap:round;stroke-linejoin:round;stroke-miterlimit:1.5;"><rect id="input_touch" x="0" y="0" width="340.182" height="437.429" style="fill:none;"/><path d="M90.776,127.661c-15.518,-3.201 -27.147,-16.219 -27.147,-31.773c-0,-17.952 15.493,-32.526 34.576,-32.526c19.083,-0 34.576,14.574 34.576,32.526c-0,5.666 -1.543,10.995 -4.254,15.634c-0.512,-0.781 -1.004,-1.49 -1.476,-2.123c-9.551,-12.823 -21.037,-15.274 -27.094,-12.471c-7.95,3.679 -13.524,15.272 -11.326,23.769c0.523,2.023 1.249,4.361 2.145,6.964Z" style="fill:none;stroke:#646464;stroke-width:4px;"/><path d="M99.468,149.757c-0.423,0.009 -0.843,0.013 -1.263,0.013c-31.612,0 -57.278,-24.144 -57.278,-53.882c0,-29.738 25.666,-53.882 57.278,-53.882c31.612,0 57.277,24.144 57.277,53.882c-0,14.286 -5.923,27.282 -15.586,36.932c-4.986,-10.339 -9.441,-18.851 -12.845,-23.421c-9.551,-12.823 -21.037,-15.274 -27.094,-12.471c-7.95,3.679 -13.524,15.272 -11.326,23.769c1.752,6.774 5.774,17.069 10.837,29.06Z" style="fill:none;stroke:#323232;stroke-width:4px;"/><path d="M243.165,398.969c-40.319,14.295 -79.55,-15.794 -107.986,-31.361c-25.778,-14.112 -50.412,-47.223 -62.634,-62.045c-6.136,-7.443 -13.386,-20.822 -10.695,-26.89c2.69,-6.067 8.026,-14.009 26.837,-9.515c11.783,2.815 25.523,24.836 33.976,21.55c8.453,-3.286 19.655,-26.71 16.742,-41.265c-5.672,-28.335 -44.199,-103.327 -50.774,-128.746c-2.198,-8.497 3.376,-20.09 11.326,-23.769c6.057,-2.803 17.543,-0.352 27.094,12.471c12.416,16.668 38.797,85.757 53.945,104.561c7.916,9.826 24.81,4.79 36.942,8.259c13.815,3.951 34.37,4.39 45.949,15.445c11.579,11.054 23.524,50.882 23.524,50.882c16.343,46.094 3.093,93.638 -44.246,110.423Z" style="fill:#fff;fill-opacity:0.5;stroke:#000;stroke-width:4px;"/></svg>