<?xml version="1.0" encoding="UTF-8" standalone="no"?><!DOCTYPE svg PUBLIC "-//W3C//DTD SVG 1.1//EN" "http://www.w3.org/Graphics/SVG/1.1/DTD/svg11.dtd"><svg width="100%" height="100%" viewBox="0 0 596 390" version="1.1" xmlns="http://www.w3.org/2000/svg" xmlns:xlink="http://www.w3.org/1999/xlink" xml:space="preserve" xmlns:serif="http://www.serif.com/" style="fill-rule:evenodd;clip-rule:evenodd;stroke-linecap:round;stroke-linejoin:round;stroke-miterlimit:1.5;"><rect id="input_default" x="0" y="0" width="595.375" height="389.451" style="fill:none;"/><path d="M550.216,266.981c-0,-8.239 -6.679,-14.918 -14.918,-14.918l-487.42,0c-8.239,0 -14.918,6.679 -14.918,14.918c0,14.059 0,35.009 0,49.068c0,8.239 6.679,14.918 14.918,14.918c75.215,-0 412.205,-0 487.42,-0c8.239,-0 14.918,-6.679 14.918,-14.918l-0,-49.068Zm-0,-198.035c-0,-2.775 -1.102,-5.436 -3.064,-7.398c-1.962,-1.961 -4.623,-3.064 -7.398,-3.064c-22.15,0 -73.561,0 -95.711,0c-2.775,0 -5.436,1.103 -7.398,3.064c-1.962,1.962 -3.064,4.623 -3.064,7.398l0,57.98c0,2.775 1.102,5.436 3.064,7.398c1.962,1.962 4.623,3.064 7.398,3.064l13.886,-0c5.777,-0 10.461,4.684 10.461,10.461l0,76.158c0,5.777 4.684,10.461 10.462,10.461l60.902,0c5.778,0 10.462,-4.684 10.462,-10.461l-0,-155.061Zm-400.265,100.555c-0,-3.851 -1.53,-7.543 -4.252,-10.266c-2.723,-2.723 -6.416,-4.252 -10.266,-4.252l-52.79,-0c-3.85,-0 -7.543,1.529 -10.266,4.252c-2.722,2.723 -4.252,6.415 -4.252,10.266l0,49.867c0,3.851 1.53,7.543 4.252,10.266c2.723,2.723 6.416,4.252 10.266,4.252l52.79,0c3.85,0 7.543,-1.529 10.266,-4.252c2.722,-2.723 4.252,-6.415 4.252,-10.266l-0,-49.867Zm199.52,-0c0,-3.851 -1.53,-7.543 -4.252,-10.266c-2.723,-2.723 -6.416,-4.252 -10.266,-4.252l-52.79,-0c-3.85,-0 -7.543,1.529 -10.266,4.252c-2.722,2.723 -4.252,6.415 -4.252,10.266l0,49.867c0,3.851 1.53,7.543 4.252,10.266c2.723,2.723 6.416,4.252 10.266,4.252l52.79,0c3.85,0 7.543,-1.529 10.266,-4.252c2.722,-2.723 4.252,-6.415 4.252,-10.266l0,-49.867Zm-99.423,-0c0,-3.851 -1.53,-7.543 -4.252,-10.266c-2.723,-2.723 -6.416,-4.252 -10.266,-4.252l-52.79,-0c-3.85,-0 -7.543,1.529 -10.265,4.252c-2.723,2.723 -4.253,6.415 -4.253,10.266l0,49.867c0,3.851 1.53,7.543 4.253,10.266c2.722,2.723 6.415,4.252 10.265,4.252l52.79,0c3.85,0 7.543,-1.529 10.266,-4.252c2.722,-2.723 4.252,-6.415 4.252,-10.266l0,-49.867Zm199.52,-0c0,-3.851 -1.529,-7.543 -4.252,-10.266c-2.723,-2.723 -6.416,-4.252 -10.266,-4.252l-52.79,-0c-3.85,-0 -7.543,1.529 -10.265,4.252c-2.723,2.723 -4.253,6.415 -4.253,10.266l0,49.867c0,3.851 1.53,7.543 4.253,10.266c2.722,2.723 6.415,4.252 10.265,4.252l52.79,0c3.85,0 7.543,-1.529 10.266,-4.252c2.723,-2.723 4.252,-6.415 4.252,-10.266l0,-49.867Zm-334.782,-96.499c-0,-3.85 -1.53,-7.543 -4.252,-10.265c-2.723,-2.723 -6.416,-4.253 -10.266,-4.253l-52.79,0c-3.85,0 -7.543,1.53 -10.266,4.253c-2.722,2.722 -4.252,6.415 -4.252,10.265l0,49.868c0,3.85 1.53,7.543 4.252,10.266c2.723,2.722 6.416,4.252 10.266,4.252l52.79,-0c3.85,-0 7.543,-1.53 10.266,-4.252c2.722,-2.723 4.252,-6.416 4.252,-10.266l-0,-49.868Zm199.52,0c0,-3.85 -1.53,-7.543 -4.252,-10.265c-2.723,-2.723 -6.416,-4.253 -10.266,-4.253l-52.79,0c-3.85,0 -7.543,1.53 -10.266,4.253c-2.722,2.722 -4.252,6.415 -4.252,10.265l0,49.868c0,3.85 1.53,7.543 4.252,10.266c2.723,2.722 6.416,4.252 10.266,4.252l52.79,-0c3.85,-0 7.543,-1.53 10.266,-4.252c2.722,-2.723 4.252,-6.416 4.252,-10.266l0,-49.868Zm-99.423,0c0,-3.85 -1.53,-7.543 -4.252,-10.265c-2.723,-2.723 -6.416,-4.253 -10.266,-4.253l-52.79,0c-3.85,0 -7.543,1.53 -10.266,4.253c-2.722,2.722 -4.252,6.415 -4.252,10.265l0,49.868c0,3.85 1.53,7.543 4.252,10.266c2.723,2.722 6.416,4.252 10.266,4.252l52.79,-0c3.85,-0 7.543,-1.53 10.266,-4.252c2.722,-2.723 4.252,-6.416 4.252,-10.266l0,-49.868Zm199.52,0c0,-3.85 -1.53,-7.543 -4.252,-10.265c-2.723,-2.723 -6.416,-4.253 -10.266,-4.253l-52.79,0c-3.85,0 -7.543,1.53 -10.265,4.253c-2.723,2.722 -4.253,6.415 -4.253,10.265l0,49.868c0,3.85 1.53,7.543 4.253,10.266c2.722,2.722 6.415,4.252 10.265,4.252l52.79,-0c3.85,-0 7.543,-1.53 10.266,-4.252c2.722,-2.723 4.252,-6.416 4.252,-10.266l0,-49.868Z" style="fill:#fff;fill-opacity:0.5;stroke:#000;stroke-width:4px;"/></svg>