<?xml version="1.0" encoding="UTF-8" standalone="no"?><!DOCTYPE svg PUBLIC "-//W3C//DTD SVG 1.1//EN" "http://www.w3.org/Graphics/SVG/1.1/DTD/svg11.dtd"><svg width="100%" height="100%" viewBox="0 0 457 438" version="1.1" xmlns="http://www.w3.org/2000/svg" xmlns:xlink="http://www.w3.org/1999/xlink" xml:space="preserve" xmlns:serif="http://www.serif.com/" style="fill-rule:evenodd;clip-rule:evenodd;stroke-linecap:round;stroke-linejoin:round;stroke-miterlimit:1.5;"><rect id="session_time" x="0" y="0" width="456.94" height="437.429" style="fill:none;"/><g><path d="M341.325,63.383c85.729,62.286 104.762,182.457 42.476,268.186c-62.286,85.73 -182.456,104.763 -268.186,42.477c-85.73,-62.287 -104.763,-182.457 -42.476,-268.186c62.286,-85.73 182.456,-104.763 268.186,-42.477Zm-115.854,190.974c-6.3,-0.522 -12.541,-2.72 -18.026,-6.705c-0.592,-0.43 -1.168,-0.875 -1.725,-1.334c-32.163,-16.166 -83.732,-15.948 -137.17,-15.75c3.391,45.396 25.966,89.072 65.647,117.902c44.358,32.227 99.753,38.393 147.865,21.398c-8.529,-34.298 -32.725,-74.422 -56.591,-115.511Zm75.537,-178.71c-69.033,-35.08 -155.346,-15.822 -202.293,48.795c-13.939,19.185 -23.003,40.435 -27.425,62.263c45.82,10.708 99.637,12.97 128.111,11.167c0.043,-0.061 0.087,-0.122 0.131,-0.182c6.293,-8.661 15.757,-13.668 25.647,-14.587c27.291,-22.196 51.11,-64.281 75.829,-107.456Zm36.42,25.355c-32.728,34.589 -62.18,80.994 -74.909,106.766c1.539,4.803 2.057,9.903 1.497,14.94l0.158,-0.119c10.182,45.721 36.246,98.894 54.576,128.726c14.879,-10.121 28.294,-22.938 39.475,-38.328c48.258,-66.422 38.08,-157.593 -20.797,-211.985Z" style="fill:#fff;fill-opacity:0.5;stroke:#000;stroke-width:4px;"/><path d="M249.163,190.54c16.092,11.692 19.842,34.004 8.37,49.795c-11.473,15.791 -33.853,19.12 -49.945,7.428c-16.092,-11.692 -19.843,-34.005 -8.37,-49.796c11.473,-15.791 33.853,-19.119 49.945,-7.427Z" style="fill:#fff;fill-opacity:0;stroke:#000;stroke-width:4px;"/></g></svg>