<?xml version="1.0" encoding="UTF-8" standalone="no"?>
<!DOCTYPE svg PUBLIC "-//W3C//DTD SVG 1.1//EN" "http://www.w3.org/Graphics/SVG/1.1/DTD/svg11.dtd">
<svg width="100%" height="100%" viewBox="0 0 95 91" version="1.1" xmlns="http://www.w3.org/2000/svg" xmlns:xlink="http://www.w3.org/1999/xlink" xml:space="preserve" xmlns:serif="http://www.serif.com/" style="fill-rule:evenodd;clip-rule:evenodd;stroke-linejoin:round;stroke-miterlimit:2;">
    <g transform="matrix(0.24,0,0,0.24,0,0)">
        <g id="Plan-de-travail1" serif:id="Plan de travail1" transform="matrix(0.732226,0,0,0.850512,9.82288,-405.193)">
            <rect x="-13.415" y="476.411" width="540.287" height="444.473" style="fill:none;"/>
            <g transform="matrix(1,0,0,1,2.26107,-18.2011)">
                <g transform="matrix(0.965948,2.67174e-17,8.90582e-17,0.831608,-148.67,486.91)">
                    <path d="M407.281,66.284C409.515,62.903 413.296,60.868 417.349,60.868C421.402,60.868 425.184,62.903 427.417,66.284C440.667,86.349 463.947,121.601 478.25,143.26C480.696,146.965 480.91,151.714 478.807,155.624C476.703,159.534 472.622,161.973 468.182,161.973C440.609,161.973 394.089,161.973 366.517,161.973C362.076,161.973 357.995,159.534 355.892,155.624C353.788,151.714 354.002,146.965 356.449,143.26C370.751,121.601 394.031,86.349 407.281,66.284Z" style="fill:white;"/>
                </g>
                <g transform="matrix(1.3657,0,0,1.33624,-24.8683,481.329)">
                    <rect x="191.514" y="82.77" width="26.047" height="253.882" style="fill:url(#_Linear1);"/>
                </g>
            </g>
        </g>
    </g>
    <defs>
        <linearGradient id="_Linear1" x1="0" y1="0" x2="1" y2="0" gradientUnits="userSpaceOnUse" gradientTransform="matrix(1.30729e-14,-213.496,213.496,1.30729e-14,204.537,296.266)"><stop offset="0" style="stop-color:white;stop-opacity:0"/><stop offset="0.21" style="stop-color:white;stop-opacity:0.39"/><stop offset="0.43" style="stop-color:white;stop-opacity:0.8"/><stop offset="1" style="stop-color:white;stop-opacity:1"/></linearGradient>
    </defs>
</svg>
