<?xml version="1.0" encoding="UTF-8" standalone="no"?>
<!DOCTYPE svg PUBLIC "-//W3C//DTD SVG 1.1//EN" "http://www.w3.org/Graphics/SVG/1.1/DTD/svg11.dtd">
<svg width="100%" height="100%" viewBox="0 0 95 91" version="1.1" xmlns="http://www.w3.org/2000/svg" xmlns:xlink="http://www.w3.org/1999/xlink" xml:space="preserve" xmlns:serif="http://www.serif.com/" style="fill-rule:evenodd;clip-rule:evenodd;stroke-linejoin:round;stroke-miterlimit:2;">
    <g transform="matrix(0.24,0,0,0.24,-8.52651e-15,0)">
        <g id="save" transform="matrix(0.732226,0,0,0.850512,9.82288,-405.193)">
            <rect x="-13.415" y="476.411" width="540.287" height="444.473" style="fill:none;"/>
            <g>
                <g transform="matrix(1.45032,0,0,1.13738,-36.1698,492.293)">
                    <path d="M313.119,108.254C313.119,77.122 290.129,51.884 261.771,51.884C215.73,51.884 150.193,51.884 115.136,51.884C108.679,51.884 102.487,54.7 97.921,59.712C93.356,64.724 90.791,71.522 90.791,78.611L90.791,284.249C90.791,291.337 93.356,298.135 97.921,303.147C102.487,308.159 108.679,310.975 115.136,310.975L288.773,310.975C295.23,310.975 301.422,308.159 305.988,303.147C310.554,298.135 313.119,291.337 313.119,284.249L313.119,108.254Z" style="fill:url(#_Linear1);"/>
                </g>
                <g transform="matrix(1.55178,0,0,1.33596,-53.2921,452.001)">
                    <path d="M258.726,106.191C258.726,96.97 251.239,89.483 242.018,89.483L157.55,89.483C148.329,89.483 140.842,96.97 140.842,106.191L140.842,139.605C140.842,148.826 148.329,156.312 157.55,156.312L242.018,156.312C251.239,156.312 258.726,148.826 258.726,139.605L258.726,106.191Z" style="fill:rgb(14,14,14);"/>
                </g>
                <g transform="matrix(0.249215,0,0,0.871714,269.696,509.056)">
                    <path d="M258.726,96.737C258.726,92.733 245.52,89.483 229.255,89.483L170.313,89.483C154.048,89.483 140.842,92.733 140.842,96.737L140.842,149.059C140.842,153.062 154.048,156.312 170.313,156.312L229.255,156.312C245.52,156.312 258.726,153.062 258.726,149.059L258.726,96.737Z" style="fill:white;"/>
                </g>
                <g transform="matrix(1.3657,0,0,1.17576,-16.7617,472.526)">
                    <path d="M283.044,204.184C283.044,202.318 282.303,200.529 280.984,199.209C279.665,197.89 277.875,197.149 276.009,197.149C248.928,197.149 151.585,197.149 124.504,197.149C122.638,197.149 120.849,197.89 119.529,199.209C118.21,200.529 117.469,202.318 117.469,204.184C117.469,222.494 117.469,271.479 117.469,289.789C117.469,291.655 118.21,293.445 119.529,294.764C120.849,296.083 122.638,296.824 124.504,296.824C151.585,296.824 248.928,296.824 276.009,296.824C277.875,296.824 279.665,296.083 280.984,294.764C282.303,293.445 283.044,291.655 283.044,289.789C283.044,271.479 283.044,222.494 283.044,204.184Z" style="fill:rgb(190,190,190);"/>
                </g>
            </g>
        </g>
    </g>
    <defs>
        <linearGradient id="_Linear1" x1="0" y1="0" x2="1" y2="0" gradientUnits="userSpaceOnUse" gradientTransform="matrix(-54.6143,-300.958,274.147,-59.9555,229.979,376.823)"><stop offset="0" style="stop-color:black;stop-opacity:1"/><stop offset="1" style="stop-color:rgb(77,77,77);stop-opacity:1"/></linearGradient>
    </defs>
</svg>
